<?xml version="1.0" encoding="UTF-8" standalone="no"?>
<svg
   xmlns:dc="http://purl.org/dc/elements/1.1/"
   xmlns:cc="http://creativecommons.org/ns#"
   xmlns:rdf="http://www.w3.org/1999/02/22-rdf-syntax-ns#"
   xmlns:svg="http://www.w3.org/2000/svg"
   xmlns="http://www.w3.org/2000/svg"
   viewBox="0 0 2583.75 492.5"
   height="492.5"
   width="2583.75"
   xml:space="preserve"
   version="1.1"
   id="svg2"><metadata
     id="metadata8"><rdf:RDF><cc:Work
         rdf:about=""><dc:format>image/svg+xml</dc:format><dc:type
           rdf:resource="http://purl.org/dc/dcmitype/StillImage" /><dc:title></dc:title></cc:Work></rdf:RDF></metadata><defs
     id="defs6" /><g
     transform="matrix(1.25,0,0,-1.25,0,492.5)"
     id="g10"><g
       transform="scale(0.1409,0.1409)"
       id="g12"><path
         id="path14"
         style="fill:#ffffff;fill-opacity:1;fill-rule:nonzero;stroke:none"
         d="m 512.555,1493.38 190.043,0 c 95.73,0 218.382,0 325.642,80.46 91.93,72.83 137.9,187.71 137.9,298.77 0,141.73 -68.92,237.54 -141.69,291.21 -103.47,72.75 -233.72,80.37 -352.512,80.37 l -159.383,0 0,-750.81 z m 232.187,1179.86 c 287.328,0 486.518,-30.6 674.268,-195.34 206.81,-183.86 260.49,-432.85 260.49,-616.74 0,-99.61 -15.34,-375.37 -210.76,-570.8 -141.7,-141.75 -352.45,-225.97 -647.349,-225.97 l -308.836,0 0,-946.265 -510.94562,0 0,2555.115 743.13262,0" /><path
         id="path16"
         style="fill:#ffffff;fill-opacity:1;fill-rule:nonzero;stroke:none"
         d="m 2701.36,1497.23 128.81,0 c 95.72,0 490.23,11.51 490.23,386.89 0,379.26 -390.74,383.11 -482.61,383.11 l -136.43,0 0,-770 z m 228.3,1176.01 c 352.45,0 532.49,-91.9 651.29,-191.48 195.37,-164.71 252.84,-383.09 252.84,-574.66 0,-248.99 -99.64,-467.34 -298.78,-601.35 -65.15,-46.05 -157.11,-88.16 -279.7,-111.12 l 796.8,-1076.505 -620.62,0 -681.89,1022.005 -48.27,0 0,-1022.005 -510.88,0 0,2555.115 739.21,0" /><path
         id="path18"
         style="fill:#ffffff;fill-opacity:1;fill-rule:nonzero;stroke:none"
         d="m 8777.24,2090.96 c -149.38,199.14 -325.61,218.38 -417.52,218.38 -268.06,0 -352.45,-168.55 -352.45,-298.83 0,-61.3 19.16,-118.74 80.48,-172.44 61.32,-57.36 145.63,-88 306.54,-145.52 199.14,-68.92 386.86,-137.84 517.1,-256.62 114.89,-103.46 218.38,-275.84 218.38,-536.332 0,-498 -360.13,-838.9457 -888.79,-838.9457 -471.19,0 -746.99,287.2777 -881.05,482.6997 l 325.64,310.332 c 122.56,-249.036 356.19,-341 536.31,-341 225.92,0 394.48,137.898 394.48,352.504 0,91.855 -30.53,164.652 -99.5,229.862 -95.82,88.05 -249.04,137.78 -394.62,187.61 -134.04,46.02 -294.95,107.31 -425.28,222.2 -84.17,72.77 -202.97,214.5 -202.97,474.99 0,375.44 252.81,750.86 819.82,750.86 160.8,0 463.43,-30.63 723.98,-298.83 l -260.55,-340.92" /><path
         id="path20"
         style="fill:#ffffff;fill-opacity:1;fill-rule:nonzero;stroke:none"
         d="m 10711.3,2223.65 0,-2105.525 -511,0 0,2107.885 -565.94,0 0,447.23 1647.24,0 0,-449.59 -570.3,0" /><path
         id="path22"
         style="fill:#ffffff;fill-opacity:1;fill-rule:nonzero;stroke:none"
         d="m 11786,118.121 510.859,0 0,2555.12 -510.859,0 0,-2555.12 z" /><path
         id="path24"
         style="fill:#ffffff;fill-opacity:1;fill-rule:nonzero;stroke:none"
         d="m 13312.3,1497.23 128.8,0 c 95.8,0 490.3,11.51 490.3,386.89 0,379.26 -390.7,383.11 -482.7,383.11 l -136.4,0 0,-770 z m 228.4,1176.01 c 352.4,0 532.2,-91.9 651.2,-191.48 195.4,-164.71 252.8,-383.09 252.8,-574.66 0,-248.99 -99.8,-467.34 -298.8,-601.35 -65,-46.05 -157.1,-88.16 -279.7,-111.12 l 796.8,-1076.505 -620.4,0 -682,1026.715 -48.3,0 0,-1026.715 -510.9,0 0,2555.115 739.3,0" /><path
         id="path26"
         style="fill:#fbc709;fill-opacity:1;fill-rule:nonzero;stroke:none"
         d="m 5479.29,1392.46 c -0.06,1.09 -0.19,2.11 -0.19,3.2 0,142.69 115.67,258.3 258.28,258.3 142.69,0 258.35,-115.61 258.35,-258.3 0,-142.12 -114.78,-257.28 -256.66,-258.22 l 0,-348.764 c 334.48,0.887 605.37,272.254 605.37,606.984 0,335.34 -271.8,607.06 -607.06,607.06 -335.24,0 -607.04,-271.72 -607.04,-607.06 0,-1.09 0.14,-2.11 0.14,-3.2 l 348.81,0" /><path
         id="path28"
         style="fill:#ffffff;fill-opacity:1;fill-rule:nonzero;stroke:none"
         d="m 6631.95,1834.5 c 64.96,-132.42 101.59,-281.32 101.59,-438.81 0,-551.01 -446.72,-997.835 -997.77,-997.835 -551.07,0 -997.75,446.825 -997.75,997.835 0,531.18 415.13,965.3 938.75,995.85 l 248.73,380.96 c -62.07,8.5 -125.34,13.27 -189.73,13.27 -767.7,0 -1390.15,-622.34 -1390.15,-1390.08 0,-767.725 622.45,-1390.06891 1390.15,-1390.06891 767.75,0 1390.08,622.34391 1390.08,1390.06891 0,299.32 -94.95,576.45 -255.91,803.26 L 6631.95,1834.5" /></g></g></svg>